<svg width="24" height="24" viewBox="0 0 24 24" fill="none" xmlns="http://www.w3.org/2000/svg">
<path fill-rule="evenodd" clip-rule="evenodd" d="M16.5136 21.4999H8.16579C5.09943 21.4999 2.74703 20.3924 3.41522 15.9347L4.19325 9.89351C4.60515 7.66925 6.02392 6.81799 7.26877 6.81799H17.4473C18.7104 6.81799 20.0468 7.73332 20.5228 9.89351L21.3008 15.9347C21.8683 19.8889 19.58 21.4999 16.5136 21.4999Z" stroke="#212121" stroke-width="1.5" stroke-linecap="round" stroke-linejoin="round"/>
<path d="M16.651 6.59836C16.651 4.21229 14.7167 2.27799 12.3306 2.27799V2.27799C11.1816 2.27312 10.078 2.72615 9.26381 3.53691C8.44963 4.34766 7.99193 5.44935 7.99194 6.59836H7.99194" stroke="#212121" stroke-width="1.5" stroke-linecap="round" stroke-linejoin="round"/>
<path d="M15.2962 11.1018H15.2505" stroke="#212121" stroke-width="1.5" stroke-linecap="round" stroke-linejoin="round"/>
<path d="M9.46566 11.1018H9.41989" stroke="#212121" stroke-width="1.5" stroke-linecap="round" stroke-linejoin="round"/>
</svg>
