<svg width="24" height="24" viewBox="0 0 24 24" fill="none" xmlns="http://www.w3.org/2000/svg">
<path d="M4.79501 7.05601C4.79501 5.80701 5.80701 4.79501 7.05601 4.79401H8.08501C8.68201 4.79401 9.25401 4.55701 9.67801 4.13701L10.397 3.41701C11.278 2.53101 12.71 2.52701 13.596 3.40801L13.597 3.40901L13.606 3.41701L14.326 4.13701C14.75 4.55801 15.322 4.79401 15.919 4.79401H16.947C18.196 4.79401 19.209 5.80601 19.209 7.05601V8.08301C19.209 8.68001 19.445 9.25301 19.866 9.67701L20.586 10.397C21.472 11.278 21.477 12.71 20.596 13.596L20.595 13.597L20.586 13.606L19.866 14.326C19.445 14.749 19.209 15.321 19.209 15.918V16.947C19.209 18.196 18.197 19.208 16.948 19.208H16.947H15.917C15.32 19.208 14.747 19.445 14.324 19.866L13.604 20.585C12.724 21.471 11.293 21.476 10.407 20.597C10.406 20.596 10.405 20.595 10.404 20.594L10.395 20.585L9.67601 19.866C9.25301 19.445 8.68001 19.209 8.08301 19.208H7.05601C5.80701 19.208 4.79501 18.196 4.79501 16.947V15.916C4.79501 15.319 4.55801 14.747 4.13701 14.324L3.41801 13.604C2.53201 12.724 2.52701 11.293 3.40701 10.407C3.40701 10.406 3.40801 10.405 3.40901 10.404L3.41801 10.395L4.13701 9.67501C4.55801 9.25101 4.79501 8.67901 4.79501 8.08101V7.05601" stroke="#212121" stroke-width="1.5" stroke-linecap="round" stroke-linejoin="round"/>
<path d="M9.43164 14.5718L14.5716 9.43176" stroke="#212121" stroke-width="1.5" stroke-linecap="round" stroke-linejoin="round"/>
<path d="M14.4955 14.5H14.5045" stroke="#212121" stroke-width="2" stroke-linecap="round" stroke-linejoin="round"/>
<path d="M9.4955 9.5H9.5045" stroke="#212121" stroke-width="2" stroke-linecap="round" stroke-linejoin="round"/>
</svg>
