<svg width="381" height="113" viewBox="0 0 381 113" fill="none" xmlns="http://www.w3.org/2000/svg">
<mask id="path-1-inside-1_829_63152" fill="white">
<path fill-rule="evenodd" clip-rule="evenodd" d="M124.11 31.9932C135.286 31.9949 144.753 24.2631 152.327 16.0477C161.379 6.22851 174.893 -0.00232193 189.993 -4.41152e-06C205.101 0.00231412 218.627 6.24278 227.689 16.0722C235.262 24.2856 244.729 32.0115 255.898 32.0132L354.01 32.0281C368.365 32.0303 380.007 43.6672 380.015 58.0231L380.03 86.9949C380.038 101.358 368.398 113.002 354.035 113L26.0407 112.95C11.6848 112.948 0.0433661 101.311 0.0356626 86.955L0.0201164 57.9833C0.0124092 43.6204 11.6522 31.9761 26.0151 31.9783L124.11 31.9932Z"/>
</mask>
<path d="M189.993 6.46265e-07L189.993 1L189.993 6.46265e-07ZM380.03 86.9949L381.03 86.9947L380.03 86.9949ZM354.009 32.0281L354.009 31.0281L354.009 32.0281ZM380.014 58.0232L379.014 58.0233L380.014 58.0232ZM124.11 31.9932L124.11 32.9932L124.11 31.9932ZM153.062 16.7257C161.922 7.11428 175.169 0.997725 189.993 1L189.993 -0.999999C174.617 -1.00236 160.835 5.34275 151.591 15.3698L153.062 16.7257ZM189.993 1C204.825 1.00228 218.083 7.12831 226.954 16.75L228.424 15.3945C219.17 5.35726 205.376 -0.997638 189.993 -0.999999L189.993 1ZM255.898 33.0132L354.01 33.0281L354.009 31.0281L255.898 31.0132L255.898 33.0132ZM379.014 58.0233L379.03 86.9951L381.03 86.9947L381.014 58.023L379.014 58.0233ZM354.035 112L26.0404 111.95L26.0408 113.95L354.035 114L354.035 112ZM1.03555 86.9548L1.02001 57.9831L-0.979994 57.9835L-0.964448 86.9552L1.03555 86.9548ZM26.0152 32.9783L124.11 32.9932L124.11 30.9932L26.0148 30.9783L26.0152 32.9783ZM1.02001 57.9831C1.0126 44.1726 12.2047 32.9762 26.0152 32.9783L26.0148 30.9783C11.0995 30.976 -0.987998 43.0681 -0.979994 57.9835L1.02001 57.9831ZM379.03 86.9951C379.037 100.806 367.845 112.002 354.035 112L354.035 114C368.951 114.002 381.038 101.91 381.03 86.9947L379.03 86.9951ZM354.01 33.0281C367.813 33.0302 379.007 44.2196 379.014 58.0233L381.014 58.023C381.006 43.1149 368.917 31.0304 354.009 31.0281L354.01 33.0281ZM226.954 16.75C234.546 24.9844 244.271 33.0115 255.898 33.0132L255.898 31.0132C245.186 31.0116 235.978 23.5868 228.424 15.3945L226.954 16.75ZM26.0404 111.95C12.2366 111.948 1.04296 100.759 1.03555 86.9548L-0.964448 86.9552C-0.956448 101.863 11.1327 113.948 26.0408 113.95L26.0404 111.95ZM151.591 15.3698C144.036 23.5644 134.828 30.9948 124.11 30.9932L124.11 32.9932C135.744 32.995 145.469 24.9618 153.062 16.7257L151.591 15.3698Z" fill="white" fill-opacity="0.1" mask="url(#path-1-inside-1_829_63152)"/>
</svg>
